<?xml version="1.0" encoding="UTF-8" standalone="no"?><!DOCTYPE svg PUBLIC "-//W3C//DTD SVG 1.1//EN" "http://www.w3.org/Graphics/SVG/1.1/DTD/svg11.dtd"><!-- Generated by graphviz version 2.39.20160930.0541 (20160930.0541) --><!-- Title: FlowChart Pages: 1 --><svg width="355pt" height="595pt" viewBox="0.00 0.00 354.89 595.00" xmlns="http://www.w3.org/2000/svg" xmlns:xlink="http://www.w3.org/1999/xlink"><g id="page0,1_graph0" class="graph" transform="scale(0.56602 0.56602) rotate(0) translate(4 1047.2)"><title>FlowChart</title><g id="clust1" class="cluster"><title>cluster_block_1</title><polygon fill="transparent" stroke="#000000" points="8,-8 8,-1035.2 611,-1035.2 611,-8 8,-8"/><text text-anchor="start" x="274" y="-1023.2" font-family="Open Sans, Noto Sans SC, Noto Sans TC, Noto Sans JP, Noto Sans KR" font-size="10.00" fill="#000000">fetch_all_nodes</text></g><g id="clust2" class="cluster"><title>cluster_block_9</title><polygon fill="transparent" stroke="#000000" points="28,-515.6 28,-591.6 470,-591.6 470,-515.6 28,-515.6"/></g><g id="clust3" class="cluster"><title>cluster_block_11</title><polygon fill="transparent" stroke="#000000" points="28,-204 28,-507.6 413,-507.6 413,-204 28,-204"/></g><!-- process_block_3 --><g id="node1" class="node"><title>process_block_3</title><polygon fill="none" stroke="#000000" points="535,-930.2 407,-930.2 407,-894.2 535,-894.2 535,-930.2"/><text text-anchor="start" x="414" y="-909.7" font-family="Open Sans, Noto Sans SC, Noto Sans TC, Noto Sans JP, Noto Sans KR" font-size="10.00" fill="#000000">client = Client(server_url)</text></g><!-- process_block_4 --><g id="node2" class="node"><title>process_block_4</title><polygon fill="none" stroke="#000000" points="535,-865.2 407,-865.2 407,-829.2 535,-829.2 535,-865.2"/><text text-anchor="start" x="414" y="-844.7" font-family="Open Sans, Noto Sans SC, Noto Sans TC, Noto Sans JP, Noto Sans KR" font-size="10.00" fill="#000000">node_cumulated = None</text></g><!-- process_block_3&#45;&gt;process_block_4 --><g id="edge2" class="edge"><title>process_block_3&#45;&gt;process_block_4</title><path fill="none" stroke="#000000" d="M471,-894.094C471,-888.318 471,-881.783 471,-875.465"/><polygon fill="#000000" stroke="#000000" points="474.5,-875.209 471,-865.209 467.5,-875.209 474.5,-875.209"/></g><!-- process_block_5 --><g id="node3" class="node"><title>process_block_5</title><polygon fill="none" stroke="#000000" points="498,-800.2 444,-800.2 444,-764.2 498,-764.2 498,-800.2"/><text text-anchor="start" x="451" y="-779.7" font-family="Open Sans, Noto Sans SC, Noto Sans TC, Noto Sans JP, Noto Sans KR" font-size="10.00" fill="#000000">node = 0</text></g><!-- process_block_4&#45;&gt;process_block_5 --><g id="edge3" class="edge"><title>process_block_4&#45;&gt;process_block_5</title><path fill="none" stroke="#000000" d="M471,-829.094C471,-823.318 471,-816.783 471,-810.465"/><polygon fill="#000000" stroke="#000000" points="474.5,-810.209 471,-800.209 467.5,-810.209 474.5,-810.209"/></g><!-- nop_block_6 --><g id="node4" class="node"><title>nop_block_6</title><ellipse fill="#000000" stroke="#000000" cx="471" cy="-733.4" rx="1.8" ry="1.8"/><text text-anchor="start" x="467.2" y="-739.2" font-family="Open Sans, Noto Sans SC, Noto Sans TC, Noto Sans JP, Noto Sans KR" font-weight="bold" font-size="10.00" fill="#000000"> </text></g><!-- process_block_5&#45;&gt;nop_block_6 --><g id="edge4" class="edge"><title>process_block_5&#45;&gt;nop_block_6</title><path fill="none" stroke="#000000" d="M471,-764.029C471,-752.972 471,-740.088 471,-735.309"/></g><!-- ifs_block_7 --><g id="node5" class="node"><title>ifs_block_7</title><polygon fill="none" stroke="#000000" points="415,-702.6 338.321,-684.6 415,-666.6 491.679,-684.6 415,-702.6"/><text text-anchor="start" x="377" y="-682.1" font-family="Open Sans, Noto Sans SC, Noto Sans TC, Noto Sans JP, Noto Sans KR" font-size="10.00" fill="#000000">node &lt; node_list</text></g><!-- nop_block_6&#45;&gt;ifs_block_7 --><g id="edge16" class="edge"><title>nop_block_6&#45;&gt;ifs_block_7</title><path fill="none" stroke="#000000" d="M469.616,-732.194C465.292,-728.426 451.573,-716.471 438.968,-705.487"/><polygon fill="#000000" stroke="#000000" points="441.196,-702.785 431.357,-698.854 436.597,-708.063 441.196,-702.785"/></g><!-- process_block_8 --><g id="node6" class="node"><title>process_block_8</title><polygon fill="none" stroke="#000000" points="319,-637.1 67,-637.1 67,-601.1 319,-601.1 319,-637.1"/><text text-anchor="start" x="74" y="-616.6" font-family="Open Sans, Noto Sans SC, Noto Sans TC, Noto Sans JP, Noto Sans KR" font-size="10.00" fill="#000000">node_cumulated = node.node_id.namespace_index</text></g><!-- ifs_block_7&#45;&gt;process_block_8 --><g id="edge5" class="edge"><title>ifs_block_7&#45;&gt;process_block_8</title><path fill="none" stroke="#000000" d="M380.799,-674.509C349.741,-665.346 302.948,-651.54 263.841,-640.001"/><polygon fill="#000000" stroke="#000000" points="264.661,-636.594 254.079,-637.121 262.68,-643.308 264.661,-636.594"/><text text-anchor="start" x="289.136" y="-659.726" font-family="Open Sans, Noto Sans SC, Noto Sans TC, Noto Sans JP, Noto Sans KR" font-weight="bold" font-size="10.00" fill="#000000"> True </text></g><!-- module_block_20 --><g id="node17" class="node"><title>module_block_20</title><polygon fill="none" stroke="#000000" points="416,-600.1 416,-637.1 418,-637.1 418,-600.1 416,-600.1"/><polygon fill="none" stroke="#000000" points="418,-600.1 418,-637.1 489,-637.1 489,-600.1 418,-600.1"/><text text-anchor="start" x="431" y="-616.1" font-family="Open Sans, Noto Sans SC, Noto Sans TC, Noto Sans JP, Noto Sans KR" font-size="10.00" fill="#000000">write_xml</text><polygon fill="none" stroke="#000000" points="489,-600.1 489,-637.1 492,-637.1 492,-600.1 489,-600.1"/></g><!-- ifs_block_7&#45;&gt;module_block_20 --><g id="edge19" class="edge"><title>ifs_block_7&#45;&gt;module_block_20</title><path fill="none" stroke="#000000" d="M424.441,-668.744C428.308,-662.249 432.903,-654.532 437.303,-647.142"/><polygon fill="#000000" stroke="#000000" points="440.594,-648.456 442.703,-638.073 434.58,-644.874 440.594,-648.456"/><text text-anchor="start" x="403.565" y="-657.421" font-family="Open Sans, Noto Sans SC, Noto Sans TC, Noto Sans JP, Noto Sans KR" font-weight="bold" font-size="10.00" fill="#000000"> False </text></g><!-- terminator_block_10 --><g id="node7" class="node"><title>terminator_block_10</title><ellipse fill="none" stroke="#000000" cx="249" cy="-553.6" rx="200.968" ry="18"/><text text-anchor="start" x="86.5" y="-551.1" font-family="Open Sans, Noto Sans SC, Noto Sans TC, Noto Sans JP, Noto Sans KR" font-size="10.00" fill="#000000">node_cumulated.append(node.get_browse_name().namespace_index)</text></g><!-- process_block_8&#45;&gt;terminator_block_10 --><g id="edge6" class="edge"><title>process_block_8&#45;&gt;terminator_block_10</title><path fill="none" stroke="#000000" d="M208.599,-600.855C214.182,-594.325 220.589,-586.831 226.631,-579.764"/><polygon fill="#000000" stroke="#000000" points="229.646,-581.623 233.485,-571.748 224.326,-577.074 229.646,-581.623"/></g><!-- terminator_block_12 --><g id="node9" class="node"><title>terminator_block_12</title><ellipse fill="none" stroke="#000000" cx="249" cy="-469.6" rx="27" ry="18"/><text text-anchor="start" x="234.5" y="-467.1" font-family="Open Sans, Noto Sans SC, Noto Sans TC, Noto Sans JP, Noto Sans KR" font-size="10.00" fill="#000000">ref = 0</text></g><!-- terminator_block_10&#45;&gt;terminator_block_12 --><g id="edge7" class="edge"><title>terminator_block_10&#45;&gt;terminator_block_12</title><path fill="none" stroke="#000000" d="M249,-535.373C249,-524.476 249,-510.395 249,-498.059"/><polygon fill="#000000" stroke="#000000" points="252.5,-497.791 249,-487.791 245.5,-497.791 252.5,-497.791"/></g><!-- module_block_2 --><g id="node8" class="node"><title>module_block_2</title><polygon fill="none" stroke="#000000" points="425,-958.7 425,-995.7 427,-995.7 427,-958.7 425,-958.7"/><polygon fill="none" stroke="#000000" points="427,-958.7 427,-995.7 514,-995.7 514,-958.7 427,-958.7"/><text text-anchor="start" x="440" y="-974.7" font-family="Open Sans, Noto Sans SC, Noto Sans TC, Noto Sans JP, Noto Sans KR" font-size="10.00" fill="#000000">get_endpoint</text><polygon fill="none" stroke="#000000" points="514,-958.7 514,-995.7 517,-995.7 517,-958.7 514,-958.7"/></g><!-- module_block_2&#45;&gt;process_block_3 --><g id="edge1" class="edge"><title>module_block_2&#45;&gt;process_block_3</title><path fill="none" stroke="#000000" d="M471,-959.106C471,-953.387 471,-946.956 471,-940.732"/><polygon fill="#000000" stroke="#000000" points="474.5,-940.614 471,-930.614 467.5,-940.614 474.5,-940.614"/></g><!-- nop_block_13 --><g id="node10" class="node"><title>nop_block_13</title><ellipse fill="#000000" stroke="#000000" cx="249" cy="-420.8" rx="1.8" ry="1.8"/><text text-anchor="start" x="245.2" y="-426.6" font-family="Open Sans, Noto Sans SC, Noto Sans TC, Noto Sans JP, Noto Sans KR" font-weight="bold" font-size="10.00" fill="#000000"> </text></g><!-- terminator_block_12&#45;&gt;nop_block_13 --><g id="edge8" class="edge"><title>terminator_block_12&#45;&gt;nop_block_13</title><path fill="none" stroke="#000000" d="M249,-451.429C249,-440.372 249,-427.488 249,-422.709"/></g><!-- ifs_block_14 --><g id="node11" class="node"><title>ifs_block_14</title><polygon fill="none" stroke="#000000" points="270,-390 172.696,-372 270,-354 367.304,-372 270,-390"/><text text-anchor="start" x="219.5" y="-369.5" font-family="Open Sans, Noto Sans SC, Noto Sans TC, Noto Sans JP, Noto Sans KR" font-size="10.00" fill="#000000">node.get_references()</text></g><!-- nop_block_13&#45;&gt;ifs_block_14 --><g id="edge10" class="edge"><title>nop_block_13&#45;&gt;ifs_block_14</title><path fill="none" stroke="#000000" d="M249.902,-418.703C251.517,-414.952 255.076,-406.681 258.757,-398.126"/><polygon fill="#000000" stroke="#000000" points="261.976,-399.5 262.714,-388.931 255.546,-396.733 261.976,-399.5"/></g><!-- process_block_15 --><g id="node12" class="node"><title>process_block_15</title><polygon fill="none" stroke="#000000" points="393,-325 147,-325 147,-289 393,-289 393,-325"/><text text-anchor="start" x="154" y="-304.5" font-family="Open Sans, Noto Sans SC, Noto Sans TC, Noto Sans JP, Noto Sans KR" font-size="10.00" fill="#000000">node_cumulated.extend(reference.node_id.name)</text></g><!-- ifs_block_14&#45;&gt;process_block_15 --><g id="edge9" class="edge"><title>ifs_block_14&#45;&gt;process_block_15</title><path fill="none" stroke="#000000" d="M270,-353.894C270,-348.118 270,-341.583 270,-335.265"/><polygon fill="#000000" stroke="#000000" points="273.5,-335.009 270,-325.009 266.5,-335.009 273.5,-335.009"/><text text-anchor="start" x="242" y="-343.432" font-family="Open Sans, Noto Sans SC, Noto Sans TC, Noto Sans JP, Noto Sans KR" font-weight="bold" font-size="10.00" fill="#000000"> True </text></g><!-- module_block_18 --><g id="node15" class="node"><title>module_block_18</title><polygon fill="none" stroke="#000000" points="374,-92.5 374,-129.5 376,-129.5 376,-92.5 374,-92.5"/><polygon fill="none" stroke="#000000" points="376,-92.5 376,-129.5 489,-129.5 489,-92.5 376,-92.5"/><text text-anchor="start" x="389" y="-108.5" font-family="Open Sans, Noto Sans SC, Noto Sans TC, Noto Sans JP, Noto Sans KR" font-size="10.00" fill="#000000">remove_duplicates</text><polygon fill="none" stroke="#000000" points="489,-92.5 489,-129.5 492,-129.5 492,-92.5 489,-92.5"/></g><!-- ifs_block_14&#45;&gt;module_block_18 --><g id="edge14" class="edge"><title>ifs_block_14&#45;&gt;module_block_18</title><path fill="none" stroke="#000000" d="M315.672,-362.425C363.653,-351.907 433.254,-335.162 441,-325 482.408,-270.675 460.102,-184.027 444.321,-139.672"/><polygon fill="#000000" stroke="#000000" points="447.536,-138.277 440.785,-130.112 440.971,-140.705 447.536,-138.277"/><text text-anchor="start" x="434.622" y="-252.191" font-family="Open Sans, Noto Sans SC, Noto Sans TC, Noto Sans JP, Noto Sans KR" font-weight="bold" font-size="10.00" fill="#000000"> False </text></g><!-- process_block_16 --><g id="node13" class="node"><title>process_block_16</title><polygon fill="none" stroke="#000000" points="297,-260 243,-260 243,-224 297,-224 297,-260"/><text text-anchor="start" x="258" y="-239.5" font-family="Open Sans, Noto Sans SC, Noto Sans TC, Noto Sans JP, Noto Sans KR" font-size="10.00" fill="#000000">ref++</text></g><!-- process_block_15&#45;&gt;process_block_16 --><g id="edge11" class="edge"><title>process_block_15&#45;&gt;process_block_16</title><path fill="none" stroke="#000000" d="M270,-288.894C270,-283.118 270,-276.583 270,-270.265"/><polygon fill="#000000" stroke="#000000" points="273.5,-270.009 270,-260.009 266.5,-270.009 273.5,-270.009"/></g><!-- process_block_16&#45;&gt;nop_block_13 --><g id="edge12" class="edge"><title>process_block_16&#45;&gt;nop_block_13</title><path fill="none" stroke="#000000" d="M242.725,-245.438C198.797,-251.597 115.516,-266.055 98,-289 69.8735,-325.843 89.0282,-359.578 124,-390 141.1,-404.875 209.56,-415.512 237.269,-419.29"/><polygon fill="#000000" stroke="#000000" points="236.827,-422.762 247.195,-420.582 237.73,-415.821 236.827,-422.762"/></g><!-- terminator_block_17 --><g id="node14" class="node"><title>terminator_block_17</title><ellipse fill="none" stroke="#000000" cx="303" cy="-177" rx="57.8786" ry="18"/><text text-anchor="start" x="262" y="-174.5" font-family="Open Sans, Noto Sans SC, Noto Sans TC, Noto Sans JP, Noto Sans KR" font-size="10.00" fill="#000000">Stop building tree</text></g><!-- process_block_16&#45;&gt;terminator_block_17 --><g id="edge13" class="edge"><title>process_block_16&#45;&gt;terminator_block_17</title><path fill="none" stroke="#000000" stroke-dasharray="5,2" d="M289.119,-204C290.303,-201.752 291.488,-199.505 292.672,-197.257"/><polygon fill="#000000" stroke="#000000" points="292.291,-205.488 293.857,-195.009 286.098,-202.224 292.291,-205.488"/><text text-anchor="start" x="208.562" y="-203.364" font-family="Open Sans, Noto Sans SC, Noto Sans TC, Noto Sans JP, Noto Sans KR" font-weight="bold" font-size="10.00" fill="#000000"> Reference error </text></g><!-- terminator_block_17&#45;&gt;module_block_18 --><g id="edge15" class="edge"><title>terminator_block_17&#45;&gt;module_block_18</title><path fill="none" stroke="#000000" d="M333.479,-161.643C349.456,-153.593 369.353,-143.568 387.147,-134.603"/><polygon fill="#000000" stroke="#000000" points="388.874,-137.652 396.229,-130.027 385.724,-131.401 388.874,-137.652"/></g><!-- process_block_19 --><g id="node16" class="node"><title>process_block_19</title><polygon fill="none" stroke="#000000" points="525,-64 471,-64 471,-28 525,-28 525,-64"/><text text-anchor="start" x="480.5" y="-43.5" font-family="Open Sans, Noto Sans SC, Noto Sans TC, Noto Sans JP, Noto Sans KR" font-size="10.00" fill="#000000">node++</text></g><!-- module_block_18&#45;&gt;process_block_19 --><g id="edge17" class="edge"><title>module_block_18&#45;&gt;process_block_19</title><path fill="none" stroke="#000000" d="M451.453,-92.9055C457.957,-86.3506 465.392,-78.8588 472.382,-71.8154"/><polygon fill="#000000" stroke="#000000" points="475.167,-73.9778 479.726,-64.4143 470.198,-69.047 475.167,-73.9778"/></g><!-- process_block_19&#45;&gt;nop_block_6 --><g id="edge18" class="edge"><title>process_block_19&#45;&gt;nop_block_6</title><path fill="none" stroke="#000000" d="M521.692,-64.0182C548.951,-86.9918 590,-129.477 590,-177 590,-619.1 590,-619.1 590,-619.1 590,-662.356 572.361,-673.898 540,-702.6 522.997,-717.681 497.405,-726.456 482.638,-730.553"/><polygon fill="#000000" stroke="#000000" points="481.78,-727.16 472.934,-732.991 483.486,-733.949 481.78,-727.16"/></g></g></svg>